<svg id="Layer_1" data-name="Layer 1" xmlns="http://www.w3.org/2000/svg" viewBox="0 0 5.2 7.55"><defs><style>.cls-1{fill:#9c27b0;}.cls-2{fill:#b3b3b3;}.cls-3{fill:#999;}.cls-4{fill:#f1b5f4;}.cls-5{fill:#af43ed;}</style></defs><title>icon_geomarker_purple</title><path class="cls-1" d="M4.66,2.36A1.85,1.85,0,0,1,3.56,4l-1,2.32L1.64,4A1.85,1.85,0,0,1,.54,2.36,2,2,0,0,1,2.6.5,2,2,0,0,1,4.66,2.36Z"/><path class="cls-2" d="M2.6,7.45,1.28,4.28A2.21,2.21,0,0,1,.1,2.36,2.39,2.39,0,0,1,2.6.1,2.39,2.39,0,0,1,5.1,2.36,2.21,2.21,0,0,1,3.92,4.28ZM2.6.9A1.55,1.55,0,0,0,1,2.36a1.45,1.45,0,0,0,.86,1.29L2,3.72,2.6,5.18l.61-1.46.15-.07a1.45,1.45,0,0,0,.86-1.29A1.55,1.55,0,0,0,2.6.9Z"/><path class="cls-1" d="M4.72,2.37a1.9,1.9,0,0,1-1.13,1.7l-1,2.39-1-2.39A1.9,1.9,0,0,1,.48,2.37,2,2,0,0,1,2.6.45,2,2,0,0,1,4.72,2.37Z"/><path class="cls-3" d="M2.6,6.54l-1-2.46A1.93,1.93,0,0,1,.44,2.36,2.07,2.07,0,0,1,2.6.41a2.07,2.07,0,0,1,2.16,2A1.93,1.93,0,0,1,3.62,4.08ZM2.6.48A2,2,0,0,0,.51,2.36,1.87,1.87,0,0,0,1.63,4h0l1,2.32L3.56,4h0A1.87,1.87,0,0,0,4.69,2.36,2,2,0,0,0,2.6.48Z"/><path class="cls-4" d="M2,1.57a1.52,1.52,0,0,0-.71,1.27,1.21,1.21,0,0,1-.18-.62A1.4,1.4,0,0,1,2.54.89a1.54,1.54,0,0,1,1,.4A1.84,1.84,0,0,0,2,1.57Z"/><path class="cls-5" d="M3.62,3.19a1.12,1.12,0,0,0,.41-1,.94.94,0,0,1,.21.45,1.06,1.06,0,0,1-1,1.16,1.28,1.28,0,0,1-.87-.19A1.48,1.48,0,0,0,3.62,3.19Z"/></svg>